<?xml version="1.0" encoding="UTF-8" standalone="no"?><!DOCTYPE svg PUBLIC "-//W3C//DTD SVG 1.1//EN" "http://www.w3.org/Graphics/SVG/1.1/DTD/svg11.dtd"><svg width="100%" height="100%" viewBox="0 0 180 93" version="1.1" xmlns="http://www.w3.org/2000/svg" xmlns:xlink="http://www.w3.org/1999/xlink" xml:space="preserve" xmlns:serif="http://www.serif.com/" style="fill-rule:evenodd;clip-rule:evenodd;stroke-linejoin:round;stroke-miterlimit:2;"><rect id="Artboard1" x="0" y="0" width="179.948" height="92.076" style="fill:none;"/><g id="Layer1"><g><path d="M59.002,38.572l0,1.486c-5.826,-2.941 -12.914,-1.416 -17.015,3.661c-4.101,5.077 -4.101,12.327 0,17.404c4.101,5.077 11.189,6.602 17.015,3.662l0,1.486l7.611,0l0,-27.698l-7.611,-0.001Zm-6.238,20.086c-3.445,0 -6.238,-2.793 -6.238,-6.238c0,-3.444 2.793,-6.238 6.238,-6.238c3.445,0 6.238,2.794 6.238,6.238c-0.004,3.444 -2.794,6.235 -6.238,6.239l0,-0.001Z" style="fill:#fff;fill-rule:nonzero;"/><path d="M83.808,38.553c-1.562,-0.002 -3.111,0.299 -4.558,0.886l0,-0.886l-7.612,0l0,27.718l7.612,0l0,-15.548c0,-2.517 2.04,-4.558 4.557,-4.558c2.517,0 4.557,2.041 4.557,4.558l0,15.549l7.612,0l0,-15.549c-0.007,-6.718 -5.451,-12.162 -12.168,-12.17l0,0Z" style="fill:#fff;fill-rule:nonzero;"/><path d="M127.936,38.572c-1.976,-0.006 -3.873,0.779 -5.266,2.181c-0.13,0.129 -0.255,0.264 -0.375,0.402c-5.593,-4 -13.276,-3.288 -18.039,1.674c-4.761,4.961 -5.16,12.667 -0.934,18.092c-2.714,2.438 -3.644,6.297 -2.338,9.705c1.306,3.407 4.578,5.655 8.226,5.654l10.078,0c0.662,0 1.199,0.537 1.199,1.199c0,0.662 -0.537,1.199 -1.199,1.199l-8.844,0l0,7.612l8.846,0c4.865,0 8.81,-3.945 8.81,-8.812c0,-4.865 -3.945,-8.81 -8.81,-8.81l-10.079,0c-0.662,0 -1.199,-0.537 -1.199,-1.199c0,-0.662 0.537,-1.199 1.199,-1.199l5.04,0c3.673,0.001 7.197,-1.457 9.794,-4.054c2.597,-2.598 4.056,-6.122 4.055,-9.795l0,-6.237l3.642,0l0,-7.612l-3.806,0Zm-13.686,7.612c2.522,0 4.797,1.519 5.762,3.85c0.966,2.331 0.432,5.014 -1.352,6.798c-1.784,1.784 -4.467,2.317 -6.798,1.352c-2.331,-0.966 -3.851,-3.24 -3.851,-5.763c0.005,-3.444 2.796,-6.234 6.239,-6.237l0,0Z" style="fill:#fff;fill-rule:nonzero;"/><rect x="136.148" y="22.28" width="7.612" height="44.028" style="fill:#fff;fill-rule:nonzero;"/><path d="M162.294,58.509c-1.13,0.04 -2.246,-0.253 -3.209,-0.846l8.468,-3.497l1.045,-0.431l7.675,-3.172l-1.495,-3.535l-0.024,-0.056l-0.004,-0.011l-0.021,-0.047l-0.004,-0.01l-0.024,-0.054l-0.005,-0.012l-0.016,-0.037l-0.013,-0.03l-0.006,-0.014c-0.122,-0.271 -0.254,-0.535 -0.392,-0.795l-0.48,-0.839l-0.475,-0.722l-0.004,0c-3.832,-5.387 -10.937,-7.316 -16.966,-4.605c-6.03,2.71 -9.304,9.304 -7.819,15.745l0.015,0.066c0.259,1.109 0.657,2.18 1.185,3.189l0.013,0.027c0.394,0.749 0.858,1.459 1.384,2.121l0.002,0.004c2.759,3.413 6.931,5.374 11.32,5.32c4.129,0 7.442,-1.318 11.069,-4.406l-4.932,-5.797c-2.249,1.916 -4.005,2.444 -6.287,2.444l0,0Zm-6.123,-7.034c0.231,-2.122 1.573,-3.961 3.523,-4.828c0.682,-0.3 1.419,-0.455 2.164,-0.452c1.335,0.002 2.631,0.446 3.686,1.263c0.041,0.033 0.08,0.069 0.119,0.105l-4.704,1.942l-4.512,1.864l-0.277,0.114l0.001,-0.008Z" style="fill:#fff;fill-rule:nonzero;"/></g><path d="M21.272,29.891l0,0c-3.442,0.004 -6.233,2.795 -6.237,6.237c0,2.524 1.519,4.798 3.85,5.764c0.772,0.319 1.583,0.475 2.387,0.475l0,7.611c0,0 -3.024,-0.021 -5.376,-0.96c-2.393,-0.954 -4.077,-2.547 -5.55,-4.389c-4.296,-5.371 -3.828,-13.131 0.934,-18.092c2.697,-2.811 6.331,-4.258 9.992,-4.257c0,0 21.351,0 21.351,0l0,7.611l-8.92,0l0,36.414l-7.611,0l0,-36.414l-4.82,0Z" style="fill:#fff;fill-rule:nonzero;"/></g></svg>